<?xml version="1.0" encoding="UTF-8"?>
<svg id="uuid-57c4f68e-a6ba-445a-b810-ee20f62550c2" data-name="Livello 1" xmlns="http://www.w3.org/2000/svg" viewBox="0 0 141.732283464567445 141.732283464567445">
  <defs>
    <style>
      .uuid-4a0bd78c-682b-4d51-af1e-8537dee3d41a {
        fill: #010101;
      }
    </style>
  </defs>
  <path class="uuid-4a0bd78c-682b-4d51-af1e-8537dee3d41a" d="M126.161771905182832-.000343144196449C103.223267922421655-.000343144196449,86.524498208787918,12.480497970862416,76.910970091550553,14.111119244889778,40.592587170067418,20.183399140756592,36.318382921484954-2.698829191953337,15.180699739668853.33731075598007c-3.261242548052905.450205200235359-6.857393842621605,2.248967135914427-9.783727644155078,5.060004483730154C2.585934747698047,8.263941949140644.787859100413698,11.919114047419498.33765390017652,15.17967030701584c-3.036139947933407,21.082780108616134,19.847460961627803,25.411201142003847,13.775181065760989,61.730270351883519-1.630621274025543,9.614214405690291-14.112834965937509,26.311611542474566-14.112834965937509,49.249429236821015v15.57325671304352l14.055186739078636-1.293653662243742h1.463166900766737c22.825952682700517,0,39.409425942616508-12.424565465051273,49.02569921351278-13.998911089067406,36.148183394565422-6.071593607473915,40.422387643149705,16.69808342522083,61.505167751765839,13.661943477283785,3.203594321192213-.449518911820633,6.802490769419819-2.192691485903197,9.668431190435513-5.003728833718924,2.868685574674601-2.923588647874567,4.609112995100077-6.52111251925453,5.059318195335436-9.726079417294386,3.036139947933407-21.026504458568525-19.732164507908237-25.355611780349136-13.659884612041424-61.505167751765839,1.57297304716667-9.557938755642681,13.997538512219762-26.199060242419364,13.997538512219762-49.024326636663318,0-.787859100415517,0-1.799448224133812.057648226858873-2.923588647874567l.167454373258806-3.598896448227606c.057648226858873-1.405518673909683.11255130005884-2.867312997866975.170199526917713-4.10400472166657.054903073199966-.955313473670685.11255130005884-1.798761935740913.11255130005884-2.473383447639208.054903073199966-1.067864773729525.109806146399933-1.743172574082564.109806146399933-1.743172574082564h-15.570511559384613ZM115.872935987592427,63.867029331957383c-5.396972095513775,34.12569143555811,19.619613207849397,49.249429236821015,12.929673738486599,61.167513851585682-.22510260011768.393929550227767-.617659573494166,1.12482671217731-1.347870447047171,1.743172574086202-.675307800354858.730897161949542-1.350615600707897,1.124140423780773-1.743172574084383,1.349243023898453-11.919457191617767,6.689939469360979-27.042508704425927-18.328018410851655-61.16751385158932-12.931046315337881-10.459035444508118,1.686896924074972-26.199746530812263,12.818495015279041-47.45272616634611,12.818495015279041-1.180416073790184,0-2.640837820898014-.281378250168927-4.216556021723591-.61834586194891-.22510260011768-1.012275412078452-.392556973376486-1.967588885749137-.392556973376486-2.811037347815727.057648226858873-21.363472070330317,11.186501164402216-37.161831383491517,12.874770665288452-47.675083612804883C30.753956452712373,42.671697923282409,5.679722922490328,27.43609511041177,12.369662391853126,15.460362268788231c.22510260011768-.39324326183123.617659573494166-1.067864773729525,1.350615600707897-1.742486285689665.672562646694132-.730897161949542,1.34787044704899-1.12482671217731,1.740427420425476-1.349243023898453,11.977105418474821-6.690625757757516,27.212708231341821,18.383607772466348,61.450264678564054,12.986635676952574,10.513938517709903-1.686210635642055,26.312297830871103-12.818495015239023,47.675083612804883-12.874770665290271,1.067864773731344,0,2.305929074380401.22510260011768,3.653799521429391.562756500297837.282750826976553,1.236691723839613.450205200235359,2.36083214757673.450205200235359,3.3731075596952,0,21.251607058682566-11.13159809120225,36.993004433443275-12.817122438427759,47.45066730110193Z"/>
</svg>