<?xml version="1.0" encoding="UTF-8"?>
<svg id="uuid-79ea17cc-234d-45d1-9136-1f84ed730070" data-name="Livello 1" xmlns="http://www.w3.org/2000/svg" viewBox="0 0 141.732283464567445 141.732283464567445">
  <defs>
    <style>
      .uuid-50a4d18a-a664-435d-bfae-cbd32670b277 {
        fill: #010101;
      }
    </style>
  </defs>
  <g>
    <path class="uuid-50a4d18a-a664-435d-bfae-cbd32670b277" d="M77.895527442793536,78.206305192496075c.228084898939414-.265969730213328.470039640382311-.400341444648802.610184414937976-.478953136898781,4.212357827665983-2.362846409243502,9.56414323239369,6.474380344796373,21.619778859574581,4.565566982068049,3.703016478044447-.586312290301066,9.251693248941592-4.515006008559794,16.770228339635651-4.528613660797419,1.87023134604533-.003384895782801,5.504114352541364,1.888207303427407,5.504114352541364,1.888207303427407.186094689099264.000000003645255.322429993488186.097033475500211.322429993488186.097033475500211l.211635600582667-6.378737664366781s-4.002953515802801-.000000078720404-5.482410745986272-.000000107798769c-8.074304204619693-.000000158772309-13.936478437306505,4.391245831251581-17.325997462347004,4.960219970142134-12.771314857764082,2.14382861393824-14.29377647612273-5.900482083783572-21.725560819635575-4.834192204209103-1.137192301772302.163160902759046-2.419515424015117.778173750706628-3.433786415371287,1.780085102700468-1.001911371928145,1.014270971689257-1.618106314785109,2.295412012248562-1.781267239777662,3.432604310766692-1.066290025810304,7.43178432258901,6.978020642061892,8.954246099143347,4.834191776979424,21.72556091460865-.568974205452832,3.389519013870085-4.931818198369001,9.267723754814142-4.931818198369001,17.342027959453844v5.482410745948073l6.633855067706463-.496781484560415s-.476078648011026.080227137397742-.476078648011026-.105867551721531c0,0-1.767664348088147-3.565299477857479-1.764279415576311-5.435530823886438.01360780012692-7.518535090419391,3.913899515086086-13.08324237859415,4.500211878177652-16.786258845233533,1.908813599668065-12.055635589549638-6.928413049106894-17.407421167961729-4.565566557008424-21.619778949268948.078611694996653-.140144772920394.214165483790566-.380917442105783.480135218458599-.609002335873811Z"/>
    <path class="uuid-50a4d18a-a664-435d-bfae-cbd32670b277" d="M63.516486908483785,78.206299360743287c.265969800224411.228084817255876.400341589018353.470039517464102.478953324298345.610184267807199,2.362847703228908,4.212357101878297-6.474377406899293,9.564145221165745-4.565560340884986,21.619780261986307.586313427775167,3.703016297955401,4.515008850507002,9.251691862085863,4.528618812219065,16.77022694851803.003385470343346,1.870231345041248-1.726152967385133,5.270280707067286-1.726152967385133,5.270280707067286.000000053412805.186094689062884-.19252361020699.306312114740649-.19252361020699.306312114740649l6.312175317852962.461585775145068s-.000001150910975-4.002953515677291-.000001576270733-5.482410745951711c-.000002321561624-8.074304204605141-4.391250112272246-13.936477088414904-4.960225292390533-17.325995938666892-2.143832536985428-12.771314199129847,5.900477693059656-14.293778288572867,4.83418553055526-21.725562304591222-.163161252035934-1.137192251553643-.778174493945698-2.41951518489077-1.780086157450569-3.433785868581253-1.014271279476816-1.001911060331622-2.295412509251037-1.618105609530176-3.432604857935075-1.781266185314962-7.431784650078043-1.066287742827626-8.954243955588026,6.978023392610339-21.725559429665736,4.834198450649637-3.389519188662234-.568973164334238-9.251694683916867-4.960217468829796-17.325998888543836-4.960214988532243-1.479457230179833.000000454418114-5.482410745873494.000001683996743-5.482410745873494.000001683996743l.000001911088475,6.221745927643497.273522453131591-.000000084019121s3.894425498412602-1.831635052294587,5.764656845538411-1.828250694214148c7.518535094444815.01360549049059,13.067212995043519,3.942297613384653,16.770229641610058,4.528608839036679,12.055636176071857,1.908809896523962,17.407419039856904-6.928418396320922,21.61977754684267-4.565573198173297.140144797165703.078611651999381.380917508002312.214165366816815.609002483470249.480135031453756Z"/>
    <path class="uuid-50a4d18a-a664-435d-bfae-cbd32670b277" d="M63.516492687882419,63.827284703838814c-.228084899048554.265969730267898-.470039640495088.400341444630612-.610184415047115.478953136935161-4.212357827665983,2.362846409243502-9.564143232306378-6.474380344832753-21.619778859469079-4.565566982068049-3.703016478131758.586312290319256-9.251693249050732,4.515006008521596-16.770228339650203,4.528613660797419-1.870231346136279.00338489580281-5.764657371135399-1.828249036798297-5.764657371135399-1.828249036798297l-.273522453131591-.000000005333277-.000000122330675,6.221745927588927s4.002953515802801.000000078702215,5.482410745968082.000000107782398c8.074304204623331.00000015873411,13.936478437306505-4.391245831287961,17.325997462368832-4.960219970125763,12.771314857745892-2.14382861393824,14.293776476013591,5.900482083729003,21.725560819613747,4.834192204156352,1.137192301681353-.163160902760865,2.419515423927805-.778173750708447,3.433786415393115-1.780085102647718,1.001911371909955-1.014270971742008,1.61810631467597-2.295412012299494,1.781267239777662-3.432604310821262,1.066290025701164-7.43178432255263-6.978020642061892-8.954246099088778-4.834191777088563-21.72556091460865.568974205558334-3.389519013888275,4.960220310906152-9.251693160253126,4.960220310906152-17.325997364858267v-5.482410745949892h-6.221745927679876v.273522453058831s1.831633856050757,3.894426061100603,1.828248923451611,5.764657407073173c-.013607800021418,7.518535090423029-3.942301627426787,13.067211784091342-4.528613990500162,16.770228250676155-1.908813599773566,12.055635589604208,6.928413049110532,17.40742116801448,4.565566556993872,21.619778949254396-.078611695087602.140144772971325-.214165483776014.380917442176724-.48013521844041.609002335888363Z"/>
    <path class="uuid-50a4d18a-a664-435d-bfae-cbd32670b277" d="M77.895533222188533,63.827290589526456c-.265969800329913-.228084817306808-.400341589014715-.470039517444093-.478953324298345-.61018426780538-2.362847703228908-4.212357101878297,6.474377406902931-9.564145221167564,4.565560340888624-21.619780261988126-.586313427887944-3.703016298006332-4.515008850507002-9.251691862084044-4.528618812328205-16.77022694851803-.003385470252397-1.870231345039429,1.828247266013932-5.764657932797491,1.828247266013932-5.764657932797491-.000000053521944-.186094689064703-.000000078594894-.273522453040641-.000000078594894-.273522453040641l-6.221745927592565.000001788852387s.000001150914613,4.002953515711852.000001576183422,5.482410745931702c.000002321561624,8.074304204605141,4.391250112377747,13.936477088416723,4.960225292390533,17.325995938685082,2.143832537076378,12.771314199168046-5.900477692968707,14.293778288572867-4.834185530449759,21.725562304573032.163161252021382,1.137192251626402.778174493862025,2.419515184963529,1.780086157450569,3.433785868581253,1.014271279371314,1.001911060388011,2.295412509251037,1.618105609601116,3.432604857916886,1.781266185371351,7.431784650099871,1.066287742823988,8.954243955606216-6.978023392612158,21.725559429683926-4.834198450706026,3.389519188647682.568973164332419,9.251694683920505,4.960217468884366,17.325998888438335,4.960214988588632,1.479457230270782-.000000454421752,5.482410745986272-.000001684053132,5.482410745986272-.000001684053132l-.235536271276942-6.702999035038374s-.062225086188846.577776456795618-.248319775379059.577776513964636c0,0-3.684093816002132,1.735111729763958-5.554325163124304,1.73172737166351-7.518535094535764-.01360549049059-13.067212995028967-3.942297613328265-16.770229641704645-4.528608838982109-12.055636175962718-1.908809896507591-17.407419039740489,6.928418396266352-21.619777546729892,4.565573198118727-.140144797183893-.07861165194663-.380917508002312-.214165366762245-.609002483473887-.480135031401005Z"/>
    <path class="uuid-50a4d18a-a664-435d-bfae-cbd32670b277" d="M117.906107306702324,117.984106269854237c-.227117062717298.264841136653558-.468045113684639.398642669375477-.607595209658029.476920787417839-4.194483462597418,2.352820105410501-9.523559550776554-6.44690750337395-21.528039306980645-4.546193838819818-3.687303409264132.583824381987142-9.184033279110736,4.511878006047482-16.670664849814784,4.525427916722037-1.862295363578596.003370532615008-5.740196108490636-1.820491198457603-5.740196108490636-1.820491198457603-.185305030572636-.000000003661626-.21292729272318,0-.21292729272318,0l-.059434639988467,6.195345088504837s3.985967719199834.000000078327503,5.459147144916642.000000107333108c8.040042380798695.000000158070179,13.84893944365831-4.388642982368765,17.224075668582373-4.955202784194626,12.717122133577504-2.134731671776535,14.233123466248799,5.875444474018877,21.633372400770895,4.813679199316539,1.132366835379798-.1624685594943,2.409248655527335-.774871713618268,3.419215774643817-1.77253163918067.997659945442138-1.009967099538699,1.611240178397566-2.285671853893291,1.773708760181762-3.418038686144428,1.061765420166921-7.40024891361827-6.948410695815255-8.916250403821323-4.813678773956781-21.633372495387448.566559868137119-3.375136213771839,4.939172528786003-9.212435303063103,4.939172528786003-17.252477683827237,0-1.473179425769558-.057619947736384-5.144871807280651-.057619947736384-5.144871807280651l-6.101943871733965.028816736075896s-.035781274458714.045228858391056-.035781274458714.230533888892751c0,0,1.82386165484786,3.576636629079076,1.820491085629328,5.438931992584912-.013550057879911,7.486631570491227-3.925573195916513,13.011763475798944-4.509397650483152,16.69906687355433-1.900713900537085,12.004479718754737,6.899013603429921,17.333555980058009,4.546193415597372,21.528039396280292-.078278120756295.139550094461811-.2132567119952.379301089102228-.478097853083455.60641814660994Z"/>
    <path class="uuid-50a4d18a-a664-435d-bfae-cbd32670b277" d="M23.525886122402881,117.984112110101705c-.264841206448182-.227116981388463-.398642813150218-.468044991281204-.476920974102541-.607595063242115-2.352821393826162-4.194482739756495,6.446904577907844-9.52356153110486,4.546187225838366-21.528040703395163-.583825514615455-3.687303229893587-4.495850241368316-9.212434010443758-4.509402451749338-16.699065576978683-.003371104692633-1.862295362576333,1.820489435180207-5.740196667782584,1.820489435180207-5.740196667782584-.000000053303665-.185305030574455,0,0,0,0l-6.426943330767244-.039580559687238s.231599304614065,3.75318824925489.231599728191213,5.226367675006259c.000002311684511,8.040042380764135,4.372616650605778,13.877340212839044,4.939177489257418,17.252476263722201,2.134735578176333,12.717121477802721-5.875440101885033,14.233125271066456-4.813672553987999,21.6333738794292.162468907314178,1.132366785517661.774872453715943,2.409248417528943,1.772532689476066,3.419215230202099,1.009967406036594.997659635209857,2.285672348865774,1.611239476269475,3.418039231048169,1.773707710137387,7.400249239726691,1.061763147044985,8.916248269317293-6.948413434653048,21.63337101675279-4.813685419267131,3.375136387734528.566558831400471,9.212436820278526,4.939169698942351,17.252479200968082,4.93916722915128,1.473179425825947-.000000452497261,5.360231215585372,0,5.360231215585372,0l.025214640678314-6.195346748078009s-.013357394738705.000000004043613-.198662425224029.000000060977982c0,0-3.877900220679294,1.823862846062184-5.740195585156471,1.820492848888534-7.486631574673083-.013547758124332-13.011764681668865-3.925569199032907-16.699068258792977-4.509392520902111-12.004480302617594-1.900710213023558-17.333553860822576,6.899018927993893-21.528037999774824,4.546200028578824-.139550118481566-.078278077899085-.379301154593122-.213256595465282-.606418293420575-.478097666760732Z"/>
    <path class="uuid-50a4d18a-a664-435d-bfae-cbd32670b277" d="M23.525880008164677,23.603892134167836c.22711706271366-.264841136651739.468045113684639-.398642669446417.607595209658029-.47692078743421,4.194483462506469-2.352820105410501,9.523559550794744,6.44690750337395,21.528039306995197,4.546193838839827,3.687303409162269-.58382438204535,9.212435391429608-4.495847411561044,16.699066962137294-4.509397322222867,1.862295363574958-.003370532613189,5.740196108577948,1.820491198443051,5.740196108577948,1.820491198443051.185305030572636.000000003663445.071417872215534.063127690189503.071417872215534.063127690189503l.200944060412439-6.25847277864159s-3.98596771918892-.000000078380253-5.45914714492028-.000000107316737c-8.040042380798695-.000000158088369-13.87734155599901,4.372612387742265-17.252477780813933,4.939172189584497-12.717122133668454,2.134731671794725-14.2331234663543-5.875444474018877-21.633372400880035-4.813679199261969-1.13236683546711.16246855947611-2.409248655523697.774871713618268-3.419215774731128,1.772531639178851-.997659945351188,1.009967099485948-1.611240178310254,2.285671853856911-1.773708760090813,3.418038686128057-1.061765420166921,7.400248913581891,6.948410695811617,8.916250403784943,4.813678773974971,21.633372495387448-.566559868155309,3.37513621373364-4.939172528716881,9.212435303026723-4.939172528716881,17.252477683843608v5.459147144936651h6.195345093750802v-.27236181092303s-1.82386165486605-3.877900780853452-1.820491085632966-5.740196144359288c.013550057883549-7.486631570471218,3.925573196011101-13.011763475780754,4.509397650574101-16.699066873497941,1.900713900540723-12.004479718809307-6.899013603513595-17.333555980094388-4.546193415593734-21.528039396314853.078278120770847-.139550094429069.21325671192244-.379301089104047.478097853083455-.606418146559008Z"/>
    <path class="uuid-50a4d18a-a664-435d-bfae-cbd32670b277" d="M117.90610142778678,23.603886140195755c.264841206335404.227116981335712.39864281312839.468044991248462.476920973989763.607595063191184,2.352821393917111,4.194482739772866-6.446904577820533,9.52356153110486-4.546187225838366,21.528040703447914.583825514706405,3.687303229839017,4.495850241350126,9.212434010407378,4.509402451840288,16.699065576996873.003371104601683,1.862295362501754-1.820489435183845,5.740196667766213-1.820489435183845,5.740196667766213.000000053307303.185305030518066.000000078292942.27236181086846.000000078292942.27236181086846l6.195345093838114-.000001781290848s-.0000011459706-3.985967719183463-.000001569555025-5.459147144953022c-.000002311680873-8.040042380744126-4.37261665060214-13.877340212819036-4.93917748925378-17.252476263704011-2.134735578267282-12.7171214778391,5.875440101885033-14.233125271121025,4.813672553882498-21.63337387937645-.162468907321454-1.132366785588601-.77487245361408-2.409248417598064-1.772532689370564-3.419215230254849-1.009967406032956-.997659635191667-2.285672348869412-1.611239476269475-3.418039231048169-1.773707710139206-7.400249239730329-1.061763147059537-8.916248269320931,6.948413434638496-21.6333710167346,4.813685419252579-3.375136387752718-.5665588313841-9.212436820296716-4.93916969892598-17.252479200986272-4.939167229154918-1.473179425829585.000000452519089-5.459147145029419.000001676940883-5.459147145029419.000001676940883l.140698348532169,6.195345045256545s-.053639665027731.000000021858796.131665365563094-.000000035075573c0,0,3.877900220482843-1.823862846082193,5.740195585050969-1.820492848890353,7.486631574673083.013547758124332,13.011764681668865,3.925569199016536,16.699068258683837,4.509392520882102,12.004480302726733,1.900710213025377,17.333553860822576-6.899018927973884,21.528037999887601-4.546200028577005.13955011849248.078278077897266.379301154585846.213256595465282.606418293438765.478097666813483Z"/>
  </g>
  <g>
    <path class="uuid-50a4d18a-a664-435d-bfae-cbd32670b277" d="M70.705599143562722,81.184130587798791c.349349378557235-.026788621060405.615452367404941.049284066879409.770136548551818.092794526632133,4.649371503652219,1.307802065784927,2.184792290063342,11.340948781627958,12.059148866333999,18.515835612282899,3.033013458833011,2.203842666138371,9.734526399570314,3.349343668092843,15.060555609954463,8.656128752090808,1.324846749954304,1.320059784420664,2.783461026825535,5.368995609927879,2.783461026825535,5.368995609927879.131588813888811.131588819209355.193409577481361.193409585188419.193409577481361.193409585188419l4.39943882274747-4.399438649748845s-2.830515520123299-2.830515631354501-3.876649739468121-3.876649891879424c-5.709395144287555-5.70939536869264-12.959658114108606-6.749498703733479-15.758735473511479-8.743925119420965-10.546599091183452-7.514767589893381-5.93495538134448-14.279497168663511-11.944001291525637-18.780581469714889-.919488568801171-.688744207292984-2.261107699545391-1.160603827476734-3.68676390670953-1.169343412335365-1.42565620725145.008739556857108-2.767275347276154.478927451724303-3.686763929588778,1.167671640967455-6.009045998762303,4.501084182889826-1.397402421833249,11.265813852323845-11.944001660722279,18.780581234901547-2.799077398703957,1.994426360604848-10.049340388959536,3.034529553162429-15.758735645413253,8.743924809597956-1.046134240001265,1.046134239946696-3.876649815800192,3.876649815711062-3.876649815800192,3.876649815711062l4.399438736247248,4.399438736212687.193409581439482-.193409581397646s1.458614356342878-4.048935796845399,2.783461132283264-5.368995555241781c5.326029314648622-5.306784979304211,12.027542277890461-6.452285849463806,15.060555780077266-8.656128455973885,9.874356717369665-7.174886636519659,7.409777701057465-17.208033400765999,12.059149230379262-18.515835375186725.154684182045457-.043510456680451.420787172366545-.117911440518583.770136550418101-.091122812613321Z"/>
    <path class="uuid-50a4d18a-a664-435d-bfae-cbd32670b277" d="M60.53808619839765,71.016609395297564c.026788728391693.349349370346317-.049283877826383.615452382633521-.092794290001621.770136577073572-1.307800637685432,4.649371905357839-11.340948110511818,2.184795773744554-18.515831908011023,12.059154554024644-2.203841734397429,3.0330141358736-3.349340677788859,9.734527428405272-8.656124125758652,15.060558268924069-1.320059377419966,1.32484715544706-5.18123190901315,2.71397658103524-5.18123190901315,2.71397658103524-.131588778847799.131588854446818,0,0,0,0l4.018267629460752,4.662333203252274s2.830514761895756-2.830516389574768,3.876648701021622-3.876650930322285c5.709393615023146-5.709396898013438,6.749494722847885-12.959660187294503,8.743920278750011-15.758738159476707,7.514764350169571-10.546601399524661,14.279495345577743-5.93495976761551,18.780577800771425-11.944007060468721.688743924827577-.919488780378742,1.160603132815595-2.261108056080047,1.169342279721604-3.68676426588172-.008739994787902-1.425656204632105-.478928301723499-2.767275200165386-1.167672773375671-3.686763570956828-4.50108602875116-6.009044616050232-11.265814281585335-1.397398961196814-18.780584903866838-11.943995891673694-1.994427220426587-2.799076786082878-3.034532640111138-10.049339456909365-8.743929650358041-15.758732959553527-1.046134561387589-1.046133918578562-3.533358920794853-3.676703007171454-3.533358920794853-3.676703007171454l-4.682208308378904,4.506617930681386s.082562004168722-.012614016737643.214150861218513.118974759472621c0,0,3.967673862352967,1.225924414433393,5.287734027700935,2.550770784844644,5.306786615328747,5.326027684583096,6.452289544107771,12.027540295906874,8.656133082284214,15.060553121164048,7.174889669699041,9.874354513378421,17.208035676852887,7.40977241505243,18.515839079529542,12.059143542650418.043510504099686.154684168592212.117911569763237.420787136084982.091123049100133.770136522382018Z"/>
    <path class="uuid-50a4d18a-a664-435d-bfae-cbd32670b277" d="M70.705589055683959,60.849114711316361c-.349349378535408.026788621060405-.615452367474063-.04928406689578-.770136548533628-.092794526632133-4.649371503670409-1.307802065837677-2.184792290063342-11.340948781626139-12.059148866333999-18.515835612282899-3.033013458833011-2.203842666120181-9.734526399573951-3.349343668092843-15.060555609958101-8.656128752088989-1.324846749968856-1.320059784422483-2.458907095071481-5.345515543962392-2.458907095071481-5.345515543962392-.131588814001589-.131588819171157.031590095746651-.402553321056985.031590095746651-.402553321056985l-4.948992427744088,4.585102319615544s2.830515520123299,2.830515631389062,3.876649739486311,3.876649891915804c5.709395144182054,5.709395368690821,12.959658113995829,6.749498703748031,15.758735473602428,8.743925119382766,10.546599091092503,7.514767589929761,5.934955381257168,14.279497168698072,11.944001291434688,18.780581469736717.919488568782981.688744207309355,2.261107699545391,1.160603827436717,3.68676390669134,1.169343412297167,1.42565620725145-.008739556806177,2.767275347297982-.478927451671552,3.686763929606968-1.167671640914705,6.009045998762303-4.501084182891645,1.397402421924198-11.265813852380234,11.944001660704089-18.780581234903366,2.799077398703957-1.99442636065578,10.049340389065037-3.03452955316061,15.758735645522393-8.743924809597956,1.046134239892126-1.046134239999446,3.876649815709243-3.876649815707424,3.876649815709243-3.876649815707424l-4.399438736250886-4.399438736198135-.193409581344895.193409581328524s-1.458614356433827,4.04893579686177-2.783461132374214,5.368995555239962c-5.326029314644984,5.30678497930603-12.027542277908651,6.452285849518375-15.060555780080904,8.656128456026636-9.874356717369665,7.174886636521478-7.409777701057465,17.208033400751447-12.059149230390176,18.515835375186725-.154684181939956.043510456685908-.420787172370183.117911440518583-.770136550421739.09112281261514Z"/>
    <path class="uuid-50a4d18a-a664-435d-bfae-cbd32670b277" d="M80.873101962752116,71.016635941892673c-.026788728409883-.349349370399068.049283877826383-.615452382575313.092794290005259-.770136577071753,1.307800637685432-4.649371905396038,11.340948110511818-2.184795773742735,18.515831907992833-12.059154554024644,2.203841734415619-3.03301413585541,3.349340677788859-9.734527428439833,8.656124125758652-15.06055826890406,1.320059377416328-1.324847155448879,5.368994754917367-2.783462676014096,5.368994754917367-2.783462676014096.131588778742298-.131588854428628.193409525847528-.193409636987781.193409525847528-.193409636987781l-4.399440001194307-4.399437471287456s-2.830514761899394,2.830516389572949-3.876648701130762,3.876650930322285c-5.709393614823057,5.709396897995248-6.749494722756936,12.959660187327245-8.743920278637233,15.758738159456698-7.514764350173209,10.54660139954467-14.279495345599571,5.93495976767008-18.780577800775063,11.94400706048873-.688743924827577.919488780415122-1.160603132815595,2.261108056080047-1.169342279721604,3.686764265865349.008739994678763,1.425656204648476.478928301723499,2.767275200183576,1.167672773379309,3.68676357097138,4.501086028838472,6.009044616070241,11.265814281690837,1.397398961178624,18.7805849038632,11.943995891724626,1.994427220426587,2.799076786068326,3.034532640092948,10.049339456805683,8.743929650358041,15.758732959433473,1.046134561383951,1.046133918649502,3.876651006601605,3.876648624906011,3.876651006601605,3.876648624906011l4.405751116551983-4.724612210557098s-.238102960483957.158060630988984-.369691817533749.026471854813281c0,0-3.878967800017563-1.353322366527209-5.199027965383721-2.678168736918451-5.306786615310557-5.326027684601286-6.452289544002269-12.027540295906874-8.656133082175074-15.060553121127668-7.174889669804543-9.874354513360231-17.208035676943837-7.409772415090629-18.515839079620491-12.059143542704987-.043510504208825-.154684168594031-.117911569763237-.420787136084982-.091123049103771-.770136522383837Z"/>
    <path class="uuid-50a4d18a-a664-435d-bfae-cbd32670b277" d="M70.870198602100572,137.603035811231166c-.347866978881939.026674948525397-.612840808757028-.049074938999183-.766868615963176-.092400770112363-4.629642751329811-1.302252648429203-2.175521526100056-11.292825552709473-12.007978087553056-18.437267071602037-3.020143424488197-2.194491065371039-9.693219728382246-3.335131344674664-14.996648914067919-8.619398062850451-1.319225006573106-1.314458353677765-2.771649922069628-5.346213265205733-2.771649922069628-5.346213265205733l-.192588879748655-.192588887217426-4.380770613697678,4.380770441492132s2.818504748389387,2.818504859242239,3.860199889739306,3.860200041615826c5.685168376778165,5.685168600206453,12.904666190057469,6.720858448223225,15.691866179902718,8.706821882386066,10.501846538973041,7.48288005673021,5.909771490390995,14.218904750583533,11.893319120317756,18.700889528801781.91558688823352.685821647999546,2.251513105115009,1.155679018700539,3.671119802460453,1.164381518721711,1.419606697618292-.008702472110599,2.755532923783903-.476895211228111,3.67111982555798-1.162716841197835,5.983547717900365-4.481984660593298,1.391472801737109-11.218009444681229,11.893319487826375-18.700889294934314,2.787200028946245-1.985963379418536,10.006697862645524-3.021653085512298,15.691866351102362-8.706821573932757,1.041695161897223-1.041695161880853,3.593898395563883-3.67017571348515,3.593898395563883-3.67017571348515l-4.313823414606304-4.338958784350325s-.027143377013999.05291520254832-.158173820782395.183945646207576c0,0-1.287485600390937,3.808562124628224-2.606710632913746,5.123020452405399-5.303429289480846,5.284266613914951-11.976505615770293,6.424906762018509-14.996649083415832,8.619397768065028-9.821521178626426,7.13649537604033-7.356141326221405,17.128771324472837-12.007978450106748,18.437266835508126-.154027808108367.043325828062734-.41900163936225.117411105073188-.766868617545697.090736149684744Z"/>
    <path class="uuid-50a4d18a-a664-435d-bfae-cbd32670b277" d="M4.125195356013137,70.871548669625554c-.026675055392843-.347866970641917.049074750717409-.612840823718216.092400534576882-.766868644253918,1.302251226294175-4.629643151380151,11.292824884396396-2.17552499500016,18.437263383028039-12.007983751122083,2.194490137651883-3.020144098563833,3.335128367030848-9.693220752884372,8.619393456167018-14.996651561736144,1.314457948399649-1.319225410397848,5.042783045439137-2.65845334734513,5.042783045439137-2.65845334734513.13103040596252-.13103048137782.24297504705828.087136601379825.24297504705828.087136601379825l-4.127728637839027-4.77369302535044s-2.818503993508784,2.818505614230162-3.860198855843919,3.860201075602163c-5.685166853814735,5.685170123028001-6.720854484134179,12.904668254514036-8.706817062189657,15.691868854388304-7.482876830763416,10.501848837600846-14.218902935186634,5.909775858197463-18.700885875394306,11.893324864837268-.685821366703749.915587098943433-1.155678327075293,2.251513460156275-1.164380391015584,3.671120160232022.008702908155101,1.41960669486798.476896057654812,2.755532777153348,1.162717968902143,3.671119468233883,4.481986498678452,5.983546341203692,11.218009872161929,1.391469355901791,18.700892948363617,11.893313743399631,1.985964235598658,2.787199418877208,3.021656159296981,10.006696934391584,8.706826394129166,15.691863676507637,1.041695481810166,1.041694841895151,3.82307870447039,3.782903589411944,3.82307870447039,3.782903589411944l4.371040161346173-4.350328129157788s-.01470699107449-.01470697451623-.145737474947964-.145737377924888c0,0-4.031755329127918-1.452423756343705-5.346214062115905-2.771648385043591-5.284268243060069-5.303427666312928-6.424910440964595-11.976503642266835-8.619402374690253-14.996646435782168-7.14444434595498-9.832454507322836-17.135016544583777-7.378330409575938-18.437270524140331-12.007972786499522-.043325875474693-.154027794780632-.117411233739404-.419001603295328-.090736385303899-.766868589777005Z"/>
    <path class="uuid-50a4d18a-a664-435d-bfae-cbd32670b277" d="M70.870189294444572,4.12924765329808c.347866978885577-.026674948452637.612840808666078.049074939021011.766868615875865.092400770116001,4.629642751420761,1.302252648463764,2.175521526081866,11.292825552744034,12.007978087534866,18.437267071638416,3.020143424506387,2.19449106538741,9.693219728487747,3.335131344674664,14.996648914086109,8.619398062866821,1.319225006660417,1.314458353659575,2.771649922160577,5.346213265205733,2.771649922160577,5.346213265205733l.192588879635878.192588887199236,4.380770613788627-4.380770441492132s-2.818504748476698-2.81850485924042-3.860199889826617-3.860200041614007c-5.685168376672664-5.685168600241013-12.904666189951968-6.720858448225044-15.691866179884528-8.706821882422446-10.501846538882091-7.48288005669383-5.909771490409184-14.218904750528964-11.893319120226806-18.700889528781772-.91558688823352-.685821648021374-2.251513105115009-1.155679018685987-3.671119802551402-1.16438151870716-1.419606697545532.008702472110599-2.755532923692954.476895211175361-3.671119825467031,1.162716841197835-5.983547717900365,4.481984660593298-1.391472801828058,11.21800944473398-11.893319487917324,18.700889294936133-2.787200028946245,1.985963379438545-10.006697862572764,3.021653085512298-15.691866351011413,8.706821573930938-1.041695161900861,1.041695161882672-3.860199965678476,3.860199965678476-3.860199965678476,3.860199965678476l4.380770527597633,4.380770527704954s.061558439716464-.061558439752844.192588883481221-.1925888834121c0,0,1.452424994811736-4.031754883022586,2.771650027229043-5.346213210748829,5.303429289589985-5.284266613914951,11.976505615879432-6.424906762000319,14.996649083524972-8.619397768045019,9.832456701959018-7.144441325603111,7.378335673020047-17.135014278053859,12.007978450015798-18.437266835528135.154027808108367-.043325828060915.419001639340422-.117411105053179.766868617633008-.090736149722943Z"/>
    <path class="uuid-50a4d18a-a664-435d-bfae-cbd32670b277" d="M137.607088108557946,70.866137990682546c.026675055389205.347866970585528-.049074750739237.612840823660008-.092400534493208.76686864419753-1.302251226399676,4.629643151416531-11.292824884483707,2.175524994998341-18.437263383024401,12.007983751122083-2.194490137742832,3.020144098618402-3.335128367139987,9.693220752868001-8.619393456276157,14.996651561790713-1.314457948490599,1.319225410345098-5.346212413769535,2.771651564402418-5.346212413769535,2.771651564402418l-.192588828092994.192588938763947,4.380771787204139,4.380769268096628s2.818503993526974-2.818505614177411,3.860198855843919-3.860201075603982c5.685166853829287-5.685170122989803,6.720854484152369-12.904668254475837,8.706817062207847-15.691868854404674,7.482876830767054-10.501848837546277,14.218902935168444-5.909775858177454,18.700885875390668-11.893324864764509.685821366794698-.915587098963442,1.155678327060741-2.251513460156275,1.164380391019222-3.671120160233841-.008702908173291-1.41960669492255-.476896057673002-2.755532777173357-1.162717968902143-3.671119468288452-4.481986498678452-5.983546341150941-11.218009872161929-1.391469355899972-18.700892948381806-11.893313743397812-1.985964235580468-2.787199418880846-3.021656159278791-10.006696934389765-8.706826394129166-15.691863676507637l-3.860201151430374-3.860198779904749-4.380769181974756,4.380771873344202s.061558458681247.061558420802612.192588942536531.19258882426584c0,0,4.031755329127918,1.452423756307326,5.346214062115905,2.77164838500903,5.284268243060069,5.303427666349307,6.424910440964595,11.976503642248645,8.619402374690253,14.99664643581491,7.14444434595498,9.832454507288276,17.135016544601967,7.378330409543196,18.437270524140331,12.007972786499522.043325875474693.154027794800641.117411233844905.419001603297147.090736385325727.766868589798833Z"/>
  </g>
</svg>