<?xml version="1.0" encoding="UTF-8"?>
<svg id="uuid-3a8f24b8-cc4b-402f-b384-e5cf40d5ff97" data-name="Livello 1" xmlns="http://www.w3.org/2000/svg" viewBox="0 0 141.732283464567445 141.732283464567445">
  <defs>
    <style>
      .uuid-37638cf2-7208-4f10-93fa-02845e66b677 {
        fill: #010101;
      }
    </style>
  </defs>
  <path class="uuid-37638cf2-7208-4f10-93fa-02845e66b677" d="M6.624719086226833,74.099985372597075c11.096753696556334,0,19.153063353871403,6.035127276321873,23.811513021761129,6.816914455615915,17.551916968181104,2.946513971524837,19.644389862132812-8.109295849360933,29.858200921838943-6.64350509976066,1.562610973272967.223987084646069,3.323197627854825,1.070802772388561,4.717216171826294,2.447962073445524,1.377159301058782,1.39401854398966,2.222048218174677,3.156050276509632,2.446516995471029,4.719142942460167,1.465309056960905,10.213811059697036-9.590019071269126,12.30580226098391-6.643986792401847,29.857719229159557.782268871969791,4.658449667913374,6.816914455617734,12.714759325204795,6.816914455617734,23.811513021784776v6.620865544962726h.042870646304436v-3.767799948538595c.000481692661197,0,.000963385300565-.000481692648464.001926770621139-.000481692648464v3.768281641187059h3.193622303617303l3.192658918289453-.001445077956305h.037572027094939v-6.620865544977278c0-11.096753696565429,6.035127276330968-19.153545046519866,6.816914455617734-23.811513021773862,2.946513971528475-17.551916968175647-8.108814156703374-19.644389862121898-6.643505099766116-29.858200921822572.224468777294533-1.562610973287519,1.071284465058852-3.323197627847549,2.447962073456438-4.717216171837208,1.394018543993297-1.377159301056963,3.156050276515089-2.222048218180134,4.719142942452891-2.446516995471029,10.213811059704312-1.465309056955448,12.305802260998462,9.590019071274583,29.857719229177746,6.643505099757022,4.658449667906098-.781787179304956,12.714759325201157-6.816914455615915,23.811994714422326-6.816914455615915h6.62231062293904v-.041425568342675h-3.000945241561567v-.001445077970857h2.999018470938609v-3.193622303610027l-.000963385302384-3.190732147682866h.000963385302384v-.041425568335399h-6.622310622940859c-11.096753696558153,0-19.153063353875041-6.035127276310959-23.811513021764767-6.816914455619553-17.551916968179285-2.946032278865459-19.643908169469796,8.109295849379123-29.857719229174108,6.643986792423675-1.563092665935983-.224468777294533-3.323679320496012-1.0712844650443-4.71769786448931-2.447962073445524-1.376677608397586-1.39401854398966-2.222048218176496-3.156531969176285-2.44603530283166-4.719142942463805-1.465790749600274-10.213811059693398,9.589537378633395-12.30628395363965,6.643505099764297-29.858200921818934-.782268871949782-4.658449667898822-6.816914455615915-12.714759325204795-6.816914455615915-23.8115130217775V.001685924302365h-.039498797719716v.000963385307841h-.001926770628415v-.000963385307841h-3.192658918287634l-3.193622303611846.001926770615682h-.040943875681478v6.621347237633017c0,11.096272003916965-6.035127276329149,19.153063353871403-6.816914455619553,23.811031329125399-2.946513971528475,17.551916968175647,8.109295849362752,19.644389862125536,6.643505099766116,29.858200921815296-.223987084656983,1.562610973291157-1.070802772397656,3.323679320503288-2.447962073456438,4.717697864492948-1.39401854397147,1.376677608401224-3.156531969156276,2.222048218180134-4.71914294245471,2.446035302826203-10.213811059702493,1.46530905695181-12.306283953654201-9.590019071292772-29.857719229152281-6.64350509976066-4.658449667931563.781787179294042-12.715241017865992,6.816914455608639-23.811513021802966,6.816914455608639H.003853541247736v.040462183034833h-.003853541247736v3.19314061095065l.001926770624777,3.191695532990707v.00192677061932h.003853541247736v.041425568342675h6.618938774354319Z"/>
  <path class="uuid-37638cf2-7208-4f10-93fa-02845e66b677" d="M23.153923378833497,27.727268913537046c7.846589787999619,7.846589788001438,9.27578155559786,17.810740400425857,12.01699588966585,21.657568766357144,10.327579500908541,14.494579521142441,19.62481936954282,8.156543198034342,25.810603852720305,16.415268838951306.946550029158971,1.263315602034709,1.592683676228262,3.107027479549288,1.604604961208679,5.066546125650348-.011921284980417,1.959518646122888-.660439189057797,3.802889915496053-1.606989218193121,5.066886733802676-6.186125091351641,8.258385032768274-15.482683743704911,1.920348709674727-25.810603852705754,16.414587622661202-2.740873725957499,3.847168974069064-4.170406101708068,13.81097897834843-12.016995889722239,21.657568766353506-1.073937474544437,1.073937474568083-3.514394818417713,3.51439481844136-4.681658924157091,4.681658924182557l.030314124707729.03031412470591.000340608150509-.000340608152328,2.663896285635929-2.663896285619558c.000340608128681.000340608159604.001021824426061.000340608159604.001703040705252.001021824442432l-2.664236893780981,2.664236893771886-.0003406081305.000340608137776,2.258231987432737,2.258231987434556,2.258572595581427,2.256528946720209.026567435119432.026567435150355c1.167264105755748-1.167264105737559,3.608062057757706-3.608062057759525,4.681658924191652-4.681658924182557,7.8465897879978-7.846589788005076,17.811081008567271-9.276122163766559,21.657568766355325-12.016995889680402,14.494579521140622-10.32757950089217,8.156883806166661-19.624478761368664,16.415268838960401-25.810603852743952,1.263656210159752-.946209420977539,3.10736808767615-1.592343068048649,5.066546125637615-1.604604961208679,1.959518646117431.011921285018616,3.802889915481501.660439189086901,5.066886733811771,1.606989218209492,8.258385032755541,6.186125091375288,1.92034870966927,15.48268374368854,16.414928230789883,25.810263244591624,3.846828365938563,2.741214334073447,13.810978978357525,4.170406101682602,21.657909374485826,12.01733649783273,1.073937474564445,1.073937474560807,3.51575725105431,3.515757251021569,4.68268074862317,4.682680748599523l.02895169212934-.028951692151168.00034060814869-.000340608145052-2.121988730266821-2.121988730265002.001021824426061-.00102182442788,2.12062629769207,2.120626297695708.00034060814869-.000340608137776,2.257550771171736-2.257550771155366.000340608108672-.000340608137776,2.255507122312338-2.256869554861623.000681216281009.000681216282828.0003406081305-.000340608152328.028951692169358-.028951692132978c-1.16692349756886-1.166923497581593-3.608402665911854-3.60840266590094-4.68268074860498-4.682680748603161-7.8465897879978-7.846589788005076-9.275781555639696-17.810740400422219-12.016995889705868-21.657568766353506-10.327920109037223-14.494238912986475-19.624478761370483-8.156202589892928-25.810603852723943-16.414587622661202-.946550029113496-1.263996818306623-1.592683676226443-3.107708695839392-1.604945569333722-5.066886733802676.012261893107279-1.959178037963284.660779797204668-3.803230523615639,1.607329826341811-5.066546125650348,6.185784483199313-8.258725640916964,15.482683743686721-1.921029925946641,25.810603852705754-16.415268838951306,2.740873725957499-3.847168974065426,4.170406101708068-13.810978978355706,12.016995889725877-21.657568766357144,1.073937474540799-1.073937474560807,3.515076034716913-3.515076034720551,4.681999532302143-4.681999532294867l-.027929867739658-.027929867734201-.000681216282828.00068121629738-.001362432554743-.001362432580208.000681216277371-.000681216275552-2.257550771149909-2.257550771151728-2.259594420011126-2.256869554854347-.028951692127521-.028951692151168c-1.167264105719369,1.167264105708455-3.608062057735879,3.60806205775225-4.68199953232579,4.681999532309419-7.846249179863662,7.846249179870938-17.810740400414943,9.275781555610592-21.657228158184807,12.01665528153535-14.494579521158812,10.327579500903084-8.156543198052532,19.624819369520992-16.415268838958582,25.810603852736676-1.263315602027433.946550029115315-3.10736808769434,1.593024284349667-5.066886733811771,1.604945569346455-1.959178037961465-.012261893134564-3.8032305236502-.660779797221039-5.066546125637615-1.60732982634363-8.25838503279374-6.186125091360736-1.920689317819779-15.48302435183723-16.41492823083172-25.810263244591624-3.846828365916735-2.741214334073447-13.811319586486206-4.170746709813102-21.657568766331678-12.016995889673126-1.073596866435764-1.073596866423031-3.513032385877523-3.513032385886618-4.680637099767409-4.680637099740125l-.028611083977012.028611083984288-.002724865140408-.002724865134951-2.257891379298599,2.25789137929678-2.255507122294148,2.258231987430918-.001362432580208.001362432562019.002724865138589.002724865142227-.029292300258021.029292300288944c1.167945321976731,1.167945322013111,3.607040233331645,3.607040233317093,4.680296491595072,4.680296491595072Z"/>
</svg>