<?xml version="1.0" encoding="UTF-8"?>
<svg id="uuid-93fcbe7c-be45-41f9-b0ed-0fc0293573be" data-name="Livello 1" xmlns="http://www.w3.org/2000/svg" viewBox="0 0 141.732283464567445 141.732283464567445">
  <defs>
    <style>
      .uuid-1629005b-8966-465d-aed9-d15220e9983f {
        fill: #010101;
      }
    </style>
  </defs>
  <path class="uuid-1629005b-8966-465d-aed9-d15220e9983f" d="M135.107564378371535,67.630612167729851c-11.096753696559972,0-19.153063353911421-6.035127276356434-23.811513021817518-6.816914455652295-17.551916968179285-2.946513971488457-19.644389862052776,8.109295849413684-29.858200921778916,6.643505099817048-1.562610973269329-.223987084660621-3.323197627851187-1.070802772417665-4.717216171886321-2.447962073467352-1.377159300978747-1.394018544035134-2.22204821816922-3.156050276549649-2.446516995463753-4.719142942421968-1.465309056900878-10.21381105972614,9.590019071292772-12.305802261060308,6.643986792434589-29.857719229221402-.782268871931592-4.658449667940658-6.816914455639562-12.714759325181149-6.816914455639562-23.811513021757492V0h-.04287064628079v3.767799948564061c-.000481692633912,0-.000963385280556.000481692693938-.001926770641148.000481692693938V0h-3.193622303559096l-3.192658918371308.001445077992685h-.037572027027636v6.620865544966364c0,11.096753696541782-6.03512727632733,19.153545046538056-6.816914455641381,23.811513021812061-2.946513971581226,17.551916968166552,8.108814156705193,19.644389862134631,6.643505099709728,29.858200921766183-.224468777294533,1.562610973360279-1.071284465017015,3.323197627854825-2.447962073360031,4.717216171889959-1.394018544036953,1.377159301049687-3.156050276535098,2.222048218149212-4.719142942511098,2.446516995445563-10.213811059649743,1.465309056991828-12.305802260967539-9.590019071276402-29.857719229148643-6.643505099787944-4.658449667907917.781787179299499-12.714759325255727,6.816914455657752-23.811994714449611,6.816914455657752H0v.041425568362683h3.000945241561567v.001445077994504H.001926770624777v3.193622303573648l.000963385356954,3.190732147655581h-.000963385356954v.041425568369959h6.62231062293904c11.096753696559972,0,19.153063353909602,6.03512727632733,23.811513021817518,6.816914455623191,17.551916968101068,2.946032278858183,19.643908169420683-8.109295849415503,29.857719229146824-6.643986792418218,1.563092665885051.224468777294533,3.323679320483279,1.071284465018834,4.717697864520233,2.447962073438248,1.376677608343016,1.39401854397147,2.222048218165583,3.156531969179923,2.44603530281347,4.719142942451072,1.465790749627558,10.213811059720683-9.58953737864249,12.306283953661477-6.643505099800677,29.858200921855314.782268871946144,4.658449667907917,6.816914455654114,12.714759325181149,6.816914455654114,23.811513021722931v6.621347237658483h.039498797652413v-.000963385356954h.00192677063751v.000963385356954h3.192658918280358l3.193622303653683-.001926770624777h.040943875639641v-6.621347237656664c0-11.096272003911508,6.03512727634552-19.153063353816833,6.816914455657752-23.811031329090838,2.946513971581226-17.551916968197474-8.109295849337286-19.644389862130993-6.64350509972428-29.858200921857133.223987084584223-1.56261097326751,1.070802772397656-3.323679320486917,2.447962073376402-4.717697864458387,1.394018544035134-1.376677608419413,3.156531969179923-2.222048218154669,4.719142942509279-2.446035302908058,10.213811059649743-1.465309056899059,12.306283953599632,9.590019071398274,29.857719229148643,6.643505099818867,4.658449667906098-.78178717929768,12.71524101788782-6.816914455566803,23.811513021815699-6.816914455566803h6.619420466942756v-.040462183005729h.003853541262288v-3.193140611007038l-.001926770622958-3.191695532950689v-.001926770622958h-.003853541264107v-.041425568369959h-6.618938774308845Z"/>
</svg>